<?xml version="1.0" encoding="utf-8"?>
<!-- Generator: Adobe Illustrator 25.0.1, SVG Export Plug-In . SVG Version: 6.00 Build 0)  -->
<svg version="1.0" id="Layer_1" xmlns="http://www.w3.org/2000/svg" xmlns:xlink="http://www.w3.org/1999/xlink" x="0px" y="0px"
	 viewBox="0 0 1087 631" style="enable-background:new 0 0 1087 631;" xml:space="preserve">
<style type="text/css">
	.st0{fill:#D22630;}
	.st1{fill:none;}
</style>
<path class="st0" d="M441.9,455.7c0-1.1,0.9-2,2-2h0.6c0.8,0,1.6,0.5,2.1,1.2l22,28.1v-27.4c0-1.1,0.9-2,2-2s2,0.9,2,2v32.7
	c0,1-0.7,1.9-1.7,1.9c0,0-0.1,0-0.1,0h-0.2c-0.9-0.1-1.6-0.5-2.1-1.2l-22.5-28.7v28.1c0,1.1-0.9,2-2,2s-2-0.9-2-2L441.9,455.7
	L441.9,455.7z"/>
<path class="st0" d="M494.7,475v-19.3c0-1.1,0.9-2,2-2s2,0.9,2,2v19c0,7.8,4.2,12.2,11.1,12.2c6.7,0,10.9-4,10.9-12v-19.3
	c0-1.1,0.9-2.1,2.1-2.1c1.1,0,2,1,2,2.1v19c0,10.6-6.1,16-15.1,16S494.7,485.2,494.7,475"/>
<path class="st0" d="M556.6,457.7h-10.5c-1,0-1.9-0.8-1.9-1.9c0-1.1,0.9-1.9,1.9-1.9h25.2c1.1,0,1.9,0.9,1.9,1.9
	c0,1-0.9,1.9-1.9,1.9h-10.5v30.7c0,1.1-0.9,2.1-2.1,2.1s-2.1-0.9-2.1-2.1V457.7z"/>
<path class="st0" d="M593,455.9c0-1.1,0.9-2,2-2.1h13.6c4.5,0,8,1.3,10.3,3.6c1.8,1.9,2.9,4.5,2.8,7.1v0.1c0,6-4,9.4-9.7,10.5
	l9,11.6c0.4,0.4,0.6,0.9,0.7,1.5c-0.1,1.1-1,2-2.1,2c-0.8,0-1.5-0.4-1.9-1.1L607.5,476h-10.4v12.3c0,1.1-0.9,2.1-2.1,2.1
	c-1.1,0-2-1-2-2.1L593,455.9L593,455.9z M608.3,472.4c5.4,0,9.3-2.8,9.3-7.5v-0.1c0-4.5-3.4-7.1-9.3-7.1h-11.2v14.7L608.3,472.4z"/>
<path class="st0" d="M643.3,455.7c0-1.1,0.9-2,2-2c1.1,0,2,0.9,2,2v32.6c0,1.1-0.9,2-2.1,2.1c-1.1,0-2-0.9-2-2.1L643.3,455.7z"/>
<path class="st0" d="M680,457.7h-10.5c-1,0-1.9-0.8-1.9-1.9c0-1,0.9-1.9,1.9-1.9h25.2c1.1,0,1.9,0.9,1.9,1.9c0,1-0.9,1.9-1.9,1.9
	h-10.5v30.7c0,1.1-0.9,2.1-2.1,2.1s-2.1-0.9-2.1-2.1V457.7z"/>
<path class="st0" d="M716.8,455.7c0-1.1,0.9-2,2-2c1.1,0,2,0.9,2,2v32.6c0,1.1-0.9,2-2,2c-1.1,0-2-0.9-2-2V455.7z"/>
<path class="st0" d="M742.4,472.1V472c0-10,7.5-18.8,18.5-18.8s18.4,8.6,18.4,18.6v0.1c0,10-7.5,18.8-18.5,18.8
	S742.4,482.1,742.4,472.1 M775.1,472.1V472c0-8.2-6-15-14.3-15s-14.2,6.6-14.2,14.9v0.1c0,8.2,6,15,14.3,15S775.1,480.3,775.1,472.1
	"/>
<path class="st0" d="M800.5,455.7c0-1.1,0.9-2,2-2h0.6c0.8,0,1.6,0.5,2.1,1.2l22,28.1v-27.4c0-1.1,0.9-2,2-2s2,0.9,2,2v32.7
	c0.1,1-0.7,1.8-1.7,1.9c-0.1,0-0.1,0-0.2,0h-0.2c-0.9-0.1-1.6-0.5-2.1-1.2l-22.5-28.7v28.1c0,1.1-0.9,2-2,2s-2-0.9-2-2L800.5,455.7
	L800.5,455.7z"/>
<path class="st0" d="M834,127.9h0.2l35.4,0.2c-0.1,29.8-24.3,53.8-54.1,53.9h-0.2l-35.4-0.1C780,152,804.2,127.9,834,127.9"/>
<path class="st0" d="M349.1,219.3h50.1v189.2c0,30.6-10.3,54-30.6,70.3s-44.5,24.3-73.1,24.3c-42.9,0-76.7-16.7-94.2-48.5l43.7-25
	c9.9,18.7,27.4,27.8,52.1,27.8c32.2,0,52.1-17.5,52.1-48.9v-21.5c-15.1,20.3-36.2,30.2-63.6,30.2c-28.2,0-51.7-9.9-70.8-29.4
	c-18.7-19.9-28.2-44.1-28.2-72.4s9.5-52.1,28.6-71.9s42.5-29.8,70.3-29.8c27.4,0,48.5,9.9,63.6,30.2V219.3z M333.2,276.9
	c-10.3-10.3-23.4-15.5-39.8-15.5s-29.4,5.2-40.2,15.5c-10.3,9.9-15.5,23-15.5,38.6c0,31.8,23.4,54.5,55.6,54.5s55.6-22.7,55.6-54.5
	C349,300,343.9,286.9,333.2,276.9"/>
<path class="st0" d="M540.2,423.6c-29.4,0-54.5-10-74.7-30.2s-30.2-45.3-30.2-74.7s10-54.1,30.2-74.3s45.3-30.6,74.7-30.6
	c29.4,0,54.5,10.3,74.7,30.6c20.3,20.3,30.6,44.9,30.6,74.3s-10.3,54.5-30.6,74.7S569.7,423.6,540.2,423.6 M540.2,373.5
	c15.5,0,28.2-5.1,38.6-15.5s15.5-23.4,15.5-39.4s-5.2-29-15.5-39.4s-23.1-15.5-38.6-15.5s-28.2,5.1-38.6,15.5
	c-10,10.3-15.1,23.5-15.1,39.4s5.1,29,15.1,39.4C512,368.4,524.7,373.5,540.2,373.5"/>
<rect x="681.7" y="127.9" class="st0" width="51.3" height="290.2"/>
<rect x="779.9" y="219.3" class="st0" width="51.3" height="198.8"/>
<path class="st0" d="M900.5,138.1c0.2,5.7-4.4,10.5-10.1,10.7c-5.7,0.2-10.5-4.4-10.7-10.1c-0.2-5.7,4.4-10.5,10.1-10.7
	c0.1,0,0.2,0,0.3,0c5.6-0.1,10.2,4.3,10.4,9.9C900.5,137.9,900.5,138,900.5,138.1z M882.3,138.1c-0.1,4.3,3.3,7.9,7.6,8.1
	c0.1,0,0.2,0,0.3,0c4.5-0.2,7.9-4,7.6-8.5c-0.2-4.1-3.5-7.5-7.7-7.6c-4.3,0-7.8,3.5-7.8,7.9C882.3,137.9,882.3,138,882.3,138.1z
	 M888.5,143.4h-2.3v-10.1c1.3-0.2,2.6-0.3,3.9-0.3c1.2-0.1,2.4,0.2,3.5,0.8c0.6,0.5,1,1.4,1,2.2c-0.1,1.2-1,2.1-2.1,2.3v0.1
	c1,0.4,1.7,1.3,1.8,2.4c0.1,0.9,0.4,1.7,0.7,2.5h-2.6c-0.4-0.8-0.7-1.6-0.8-2.4c-0.2-1.1-0.8-1.6-2.1-1.6h-1.1L888.5,143.4
	L888.5,143.4z M888.6,137.6h1.1c1.3,0,2.3-0.4,2.3-1.5s-0.7-1.5-2.1-1.5c-0.4,0-0.9,0-1.3,0.1V137.6z"/>
<rect x="156" y="88" class="st1" width="775" height="455"/>
</svg>
