<svg width="79" height="43" viewBox="0 0 79 43" fill="none" xmlns="http://www.w3.org/2000/svg">
<path d="M74.8813 0H74.9099L79.0001 0.0189386C78.9842 3.43104 76.1873 6.18975 72.747 6.18975H72.7183L68.6282 6.17397C68.6441 2.76187 71.441 0.00315643 74.8813 0.00315643" fill="black"/>
<path d="M18.8007 10.4762H24.5919V32.1608C24.5919 35.6676 23.3974 38.3537 21.0529 40.2223C18.7083 42.0909 15.9051 43.0032 12.5954 43.0032C7.62923 43.0032 3.72383 41.0904 1.69786 37.4447L6.75323 34.5755C7.90319 36.7156 9.92597 37.7635 12.777 37.7635C16.5008 37.7635 18.8007 35.7592 18.8007 32.1608V29.702C17.0551 32.0251 14.6182 33.1646 11.4454 33.1646C8.2727 33.1646 5.46948 32.0251 3.26194 29.7935C1.10218 27.5146 0 24.7369 0 21.5016C0 18.2662 1.10218 15.5328 3.30972 13.257C5.51726 10.978 8.22811 9.84174 11.4454 9.84174C14.6628 9.84174 17.0551 10.9812 18.8007 13.3043V10.4793V10.4762ZM16.9595 17.0826C15.765 15.8989 14.2487 15.3055 12.3629 15.3055C10.4771 15.3055 8.96077 15.8989 7.71843 17.0826C6.52069 18.222 5.925 19.7245 5.925 21.5016C5.925 25.1441 8.63585 27.7418 12.3597 27.7418C16.0835 27.7418 18.7944 25.1441 18.7944 21.5016C18.7944 19.7245 18.1955 18.222 16.9531 17.0826" fill="black"/>
<path d="M40.9113 33.8906C37.5092 33.8906 34.6136 32.7511 32.2691 30.428C29.9278 28.1048 28.7778 25.2356 28.7778 21.8646C28.7778 18.4935 29.9278 15.6685 32.2691 13.3454C34.6136 11.0222 37.5092 9.83858 40.9113 9.83858C44.3134 9.83858 47.209 11.0222 49.5536 13.3454C51.8981 15.6685 53.0926 18.4935 53.0926 21.8646C53.0926 25.2356 51.8981 28.1048 49.5536 30.428C47.209 32.7511 44.3134 33.8906 40.9113 33.8906ZM40.9113 28.1522C42.7048 28.1522 44.1765 27.5619 45.371 26.3751C46.5656 25.1883 47.1644 23.689 47.1644 21.8646C47.1644 20.0401 46.5656 18.5377 45.371 17.354C44.1733 16.1704 42.7016 15.577 40.9113 15.577C39.1211 15.577 37.6462 16.1672 36.4517 17.354C35.3017 18.5377 34.706 20.0433 34.706 21.8646C34.706 23.6858 35.3017 25.1883 36.4517 26.3751C37.6494 27.5588 39.1179 28.1522 40.9113 28.1522Z" fill="black"/>
<path d="M63.2063 0H57.2749V33.253H63.2063V0Z" fill="black"/>
<path d="M74.5595 10.4762H68.6282V33.253H74.5595V10.4762Z" fill="black"/>
<path d="M28.6438 37.0596C28.6438 36.9081 28.768 36.7882 28.9114 36.7882H30.4468C31.5362 36.7882 32.253 37.3626 32.253 38.3032V38.3159C32.253 39.348 31.3865 39.8783 30.3576 39.8783H29.1853V41.3239C29.1853 41.4755 29.0611 41.5954 28.9082 41.5954C28.7553 41.5954 28.6406 41.4723 28.6406 41.3239V37.0596H28.6438ZM30.3799 39.3859C31.1795 39.3859 31.7019 38.9629 31.7019 38.3348V38.3222C31.7019 37.6404 31.1858 37.2837 30.4086 37.2837H29.1885V39.3859H30.3799V39.3859Z" fill="#D22730"/>
<path d="M33.7277 41.2072L35.6835 36.9681C35.7536 36.8166 35.8556 36.7282 36.0276 36.7282H36.0562C36.2219 36.7282 36.3334 36.8166 36.3939 36.9681L38.3498 41.2008C38.3721 41.2482 38.3848 41.2955 38.3848 41.3366C38.3848 41.4786 38.267 41.5954 38.1236 41.5954C37.993 41.5954 37.9038 41.507 37.856 41.3965L37.3527 40.2981H34.7088L34.2055 41.4092C34.1577 41.526 34.0685 41.5922 33.9443 41.5922C33.8073 41.5922 33.6958 41.4818 33.6958 41.346C33.6958 41.305 33.7022 41.2577 33.7308 41.204L33.7277 41.2072ZM37.1361 39.8089L36.0276 37.3658L34.919 39.8089H37.1361V39.8089Z" fill="#D22730"/>
<path d="M40.6497 37.0596C40.6497 36.9081 40.7739 36.7882 40.9173 36.7882H42.7234C43.3159 36.7882 43.7906 36.9649 44.0932 37.2648C44.3289 37.4952 44.4659 37.8298 44.4659 38.2054V38.218C44.4659 39.004 43.9275 39.4617 43.1789 39.6037L44.3767 41.1314C44.4308 41.1914 44.4659 41.2545 44.4659 41.3303C44.4659 41.4723 44.3289 41.5954 44.1887 41.5954C44.0773 41.5954 43.9944 41.5354 43.9339 41.4534L42.5769 39.7047H41.1912V41.3208C41.1912 41.4723 41.067 41.5922 40.9141 41.5922C40.7612 41.5922 40.6465 41.4691 40.6465 41.3208V37.0565L40.6497 37.0596ZM42.6756 39.2218C43.3987 39.2218 43.9148 38.8525 43.9148 38.2401V38.2275C43.9148 37.6404 43.4593 37.2869 42.682 37.2869H41.1944V39.2249H42.6756V39.2218Z" fill="#D22730"/>
<path d="M48.0815 37.2837H46.6831C46.5461 37.2837 46.4282 37.1732 46.4282 37.0375C46.4282 36.9018 46.5461 36.785 46.6831 36.785H50.031C50.168 36.785 50.2858 36.9018 50.2858 37.0375C50.2858 37.1732 50.168 37.2837 50.031 37.2837H48.6326V41.3239C48.6326 41.4755 48.5083 41.5954 48.3586 41.5954C48.2089 41.5954 48.0815 41.4723 48.0815 41.3239V37.2837V37.2837Z" fill="#D22730"/>
<path d="M52.5 37.0312C52.5 36.8892 52.6242 36.7661 52.7676 36.7661H52.844C52.9683 36.7661 53.0447 36.826 53.1212 36.9239L56.0486 40.6232V37.0186C56.0486 36.8765 56.1665 36.7534 56.3162 36.7534C56.4659 36.7534 56.5774 36.8765 56.5774 37.0186V41.3303C56.5774 41.4723 56.4755 41.5828 56.329 41.5828H56.3003C56.1824 41.5828 56.0996 41.5133 56.0168 41.4186L53.0288 37.6309V41.3303C53.0288 41.4723 52.9109 41.5954 52.7612 41.5954C52.6115 41.5954 52.5 41.4723 52.5 41.3303V37.0312V37.0312Z" fill="#D22730"/>
<path d="M59.167 41.2892V37.0565C59.167 36.9049 59.2912 36.785 59.4346 36.785H62.4321C62.5691 36.785 62.6806 36.8955 62.6806 37.0312C62.6806 37.1669 62.5691 37.2774 62.4321 37.2774H59.7117V38.9093H62.1231C62.2601 38.9093 62.3716 39.0261 62.3716 39.1555C62.3716 39.2912 62.2601 39.4017 62.1231 39.4017H59.7117V41.0746H62.4672C62.6041 41.0746 62.7156 41.1851 62.7156 41.3208C62.7156 41.4565 62.6041 41.567 62.4672 41.567H59.4378C59.2944 41.567 59.1702 41.4439 59.1702 41.2955L59.167 41.2892Z" fill="#D22730"/>
<path d="M65.0093 37.0596C65.0093 36.9081 65.1335 36.7882 65.2769 36.7882H67.083C67.6755 36.7882 68.1502 36.9649 68.4528 37.2648C68.6885 37.4952 68.8255 37.8298 68.8255 38.2054V38.218C68.8255 39.004 68.2871 39.4617 67.5386 39.6037L68.7363 41.1314C68.7905 41.1914 68.8255 41.2545 68.8255 41.3303C68.8255 41.4723 68.6885 41.5954 68.5484 41.5954C68.4369 41.5954 68.354 41.5354 68.2935 41.4534L66.9365 39.7047H65.5508V41.3208C65.5508 41.4723 65.4266 41.5922 65.2737 41.5922C65.1208 41.5922 65.0061 41.4691 65.0061 41.3208V37.0565L65.0093 37.0596ZM67.0353 39.2218C67.7584 39.2218 68.2744 38.8525 68.2744 38.2401V38.2275C68.2744 37.6404 67.8189 37.2869 67.0416 37.2869H65.554V39.2249H67.0353V39.2218Z" fill="#D22730"/>
<path d="M71.0426 40.9894C70.9821 40.9483 70.9407 40.8726 70.9407 40.7842C70.9407 40.6327 71.0585 40.5191 71.2019 40.5191C71.272 40.5191 71.3325 40.5475 71.3675 40.579C71.8231 40.961 72.2754 41.144 72.8902 41.144C73.5368 41.144 73.9637 40.8031 73.9637 40.3328V40.3202C73.9637 39.8751 73.7216 39.6226 72.7086 39.4111C71.6001 39.1713 71.0904 38.8177 71.0904 38.0318V38.0192C71.0904 37.2679 71.7593 36.7156 72.6736 36.7156C73.3075 36.7156 73.7694 36.8734 74.209 37.1859C74.2631 37.2269 74.3268 37.3027 74.3268 37.4037C74.3268 37.5457 74.209 37.6625 74.0656 37.6625C74.0051 37.6625 73.9541 37.6499 73.9064 37.6151C73.4986 37.3216 73.1068 37.1985 72.6608 37.1985C72.0333 37.1985 71.6351 37.5394 71.6351 37.9687V37.9813C71.6351 38.4327 71.8836 38.6852 72.9443 38.9093C74.0179 39.1397 74.5148 39.5311 74.5148 40.2602V40.2729C74.5148 41.0904 73.8267 41.6238 72.8679 41.6238C72.1639 41.6238 71.581 41.406 71.0426 40.983V40.9894Z" fill="#D22730"/>
</svg>
